# xmcd
#
# Track frame offsets:
#	150
#	17606
#	35299
#	51573
#	67535
#	84746
#	100980
#	119807
#	136988
#	155228
#	173604
#	190404
#	209171
#	229392
#	246789
#	267328
#	291412
#	312796
#
# Disc length: 4421 seconds
#
# Revision: 0
# Processed by: cddbd v1.5.2PL0 Copyright (c) Steve Scherf et al.
# Submitted via: audiograbber 1.83.01
#
DISCID=11114312
DTITLE=JonesTM - HC200830
DYEAR=2008
DGENRE=Country
TTITLE0=Dolly Parton - Shinola [Radio Edit]
TTITLE1=Montgomery Gentry - Roll With Me
TTITLE2=Blake Shelton - She Wouldn't Be Gone
TTITLE3=Hoss Howard - Twang Thang [Album Version]
TTITLE4=Pretty Ricky - Knockin' Boots '08
TTITLE5=Slim Feat. Yung Joc - So Fly [Clean]
TTITLE6=Alicia Keys - Superwoman [Radio Edit]
TTITLE7=Eric Benet - You're The Only One [Radio Edit]
TTITLE8=Dave Stewart Feat. Candy Dulfer - Lily Was Here [Radio Edit]
TTITLE9=Sergio Mendes Feat. Natalie Cole - Somewhere In The Hills (O Morro Nao 
TTITLE9=Tem Vez) [Album Version]
TTITLE10=L.A. Chillharmonic Feat. Richard Smith - Boogie On Reggae Woman [Radio
TTITLE10=Edit #2]
TTITLE11=David Sanborn feat. Derek Trucks - Brother Ray [Radio Edit]
TTITLE12=Walter Becker - Somebody's Saturday Night [Album Version]
TTITLE13=Carly Simon - So Many People To Love [Album Version]
TTITLE14=Walter Becker - Door Number Two [Album Version]
TTITLE15=Walter Duda - Rapless Rhapsody [Album Version]
TTITLE16=Terrence Howard - Sanctuary [Album Version]
TTITLE17=Stanley Jordan - Steppin' Out [Radio Edit #2]
EXTD=
EXTT0=
EXTT1=
EXTT2=
EXTT3=
EXTT4=
EXTT5=
EXTT6=
EXTT7=
EXTT8=
EXTT9=
EXTT10=
EXTT11=
EXTT12=
EXTT13=
EXTT14=
EXTT15=
EXTT16=
EXTT17=
PLAYORDER=
